<?xml version="1.0" encoding="UTF-8"?>
<svg version="1.1" xmlns="http://www.w3.org/2000/svg" width="500" height="500">
<path d="M0 0 C15.86059019 2.68534635 31.65726947 5.62908004 47.4375 8.75 C49.54878272 9.16559532 51.66011071 9.58096074 53.77148438 9.99609375 C58.84817848 10.99476432 63.92426219 11.99648092 69 13 C70.06032458 16.18097374 69.97663582 16.98449418 69.21635437 20.10803223 C69.01659657 20.9460009 68.81683878 21.78396957 68.61102772 22.64733124 C68.38320449 23.56615334 68.15538126 24.48497543 67.9206543 25.43164062 C67.6860358 26.40538887 67.45141729 27.37913712 67.20968914 28.38239288 C66.42221053 31.64225824 65.62317368 34.89917998 64.82421875 38.15625 C64.2651901 40.46084195 63.70690602 42.76561462 63.14932251 45.07055664 C61.64835642 51.26697263 60.13768772 57.46098629 58.62533951 63.65463257 C57.06807468 70.03979273 55.51994518 76.42716508 53.97143555 82.81445312 C52.10516759 90.510247 50.23819597 98.20586606 48.36720276 105.9005127 C43.16701182 127.28715059 38.01601466 148.68532357 32.88986588 170.08981323 C31.93800436 174.06331448 30.98499182 178.03653956 30.03198242 182.00976562 C28.35389061 189.00632736 26.67656407 196.00307199 25 203 C12.43981653 203.07433485 12.43981653 203.07433485 6.31640625 202.59765625 C5.20458984 202.51193359 4.09277344 202.42621094 2.94726562 202.33789062 C1.83029297 202.24701172 0.71332031 202.15613281 -0.4375 202.0625 C-2.15356445 201.93198242 -2.15356445 201.93198242 -3.90429688 201.79882812 C-8.68663956 201.42149542 -13.30007139 200.97225557 -18 200 C-18.23812797 189.57796146 -17.49189728 179.37362414 -16.56298828 169.00415039 C-16.40813559 167.22877985 -16.25376076 165.45336758 -16.099823 163.67791748 C-15.68357482 158.89489722 -15.26017026 154.11253672 -14.83499765 149.33030248 C-14.47991902 145.32904312 -14.12837869 141.32747603 -13.77681339 137.32590669 C-12.94767468 127.88925544 -12.11269369 118.45313387 -11.27392578 109.01733398 C-10.40945944 99.29136539 -9.55450656 89.56459362 -8.70424473 79.83737379 C-7.97236386 71.46803845 -7.23482902 63.09921472 -6.49270427 54.7307815 C-6.05015447 49.73995797 -5.609695 44.74897298 -5.17459488 39.75749397 C-4.76580566 35.07089729 -4.3499452 30.38498088 -3.92863846 25.69949341 C-3.77535315 23.98162918 -3.62454727 22.26354161 -3.47641754 20.54522514 C-3.2736696 18.19799291 -3.06192826 15.85173794 -2.84793091 13.50550842 C-2.73178499 12.19316758 -2.61563908 10.88082674 -2.49597359 9.52871799 C-2.01930168 6.13732622 -1.19753226 3.20045136 0 0 Z " fill="#000000" transform="translate(409,123)"/>
<path d="M0 0 C4.22340414 1.96455899 6.89463476 4.35171777 9.51171875 8.27734375 C10.17558594 7.92800781 10.83945313 7.57867187 11.5234375 7.21875 C12.40644531 6.76371094 13.28945312 6.30867188 14.19921875 5.83984375 C15.06933594 5.38738281 15.93945312 4.93492187 16.8359375 4.46875 C26.29368234 0.25763733 37.03617416 1.96842342 46.51171875 5.27734375 C58.59370703 10.72471419 65.60819802 20.22285528 70.51171875 32.27734375 C81.54486139 63.41693713 77.02840676 97.9174709 63.07421875 127.3046875 C59.64685452 133.94520569 55.42542531 139.66167911 50.51171875 145.27734375 C49.94582031 145.92703125 49.37992187 146.57671875 48.796875 147.24609375 C41.08231851 155.52335907 30.8909936 161.05762992 19.5 161.48828125 C13.75913895 161.58354901 8.13091418 161.62508115 2.51171875 160.27734375 C2.24359375 161.22609375 1.97546875 162.17484375 1.69921875 163.15234375 C0.51171875 166.27734375 0.51171875 166.27734375 -2.48828125 168.27734375 C-7.68617536 168.97910025 -12.18079092 168.86104479 -16.98828125 166.71484375 C-29.72968536 154.29197475 -28.29882553 121.57144929 -28.58285522 105.0710907 C-28.63030248 100.68281658 -28.62771223 96.29472009 -28.62109375 91.90625 C-28.62177047 90.28832484 -28.62274353 88.67039979 -28.62399292 87.05247498 C-28.62545304 83.68853776 -28.62337066 80.32462741 -28.61865234 76.96069336 C-28.61296077 72.70075365 -28.61624135 68.44087707 -28.62222481 64.18093967 C-28.62588042 60.8475855 -28.62466911 57.5142457 -28.62209702 54.18089104 C-28.62144124 52.61239552 -28.62220747 51.0438986 -28.62457657 49.47540474 C-28.63420031 41.31717989 -28.50793963 33.18594578 -28.05810547 25.03881836 C-28.00316516 23.99523714 -28.00316516 23.99523714 -27.94711494 22.93057346 C-27.41405224 14.26465592 -25.78637234 7.42182286 -19.48828125 1.27734375 C-13.99461983 -2.23956974 -6.0781386 -1.76523649 0 0 Z M9.51171875 24.27734375 C8.51934555 27.996863 8.27792364 31.70545035 8.046875 35.53857422 C7.93170532 37.40870682 7.93170532 37.40870682 7.81420898 39.31661987 C7.73408507 40.67591618 7.65409196 42.03522019 7.57421875 43.39453125 C7.48861017 44.81203686 7.40274929 46.22952726 7.31665039 47.64700317 C7.13634435 50.62766206 6.9583905 53.60844896 6.78222656 56.58935547 C6.56062552 60.33775606 6.33438932 64.08585749 6.10654736 67.83388329 C4.11102087 99.8461965 4.11102087 99.8461965 3.19921875 131.90234375 C3.17021484 132.9490625 3.14121094 133.99578125 3.11132812 135.07421875 C3.07383006 139.58552422 3.05401242 142.45326937 5.2734375 146.44921875 C8.4043387 149.0063946 10.09756661 148.99854076 14.01171875 148.75390625 C21.2505329 147.3740073 27.22871551 143.62906533 31.7890625 137.8828125 C49.03882054 111.79304241 51.01669669 77.59256721 45.01660156 47.56103516 C42.94773191 38.20310155 40.22426139 29.39337256 33.51171875 22.27734375 C33.01929687 21.7359375 32.526875 21.19453125 32.01953125 20.63671875 C29.04832358 17.95801339 25.56598305 17.94874611 21.7109375 17.984375 C17.00169464 18.61171641 12.83981224 20.94925026 9.51171875 24.27734375 Z " fill="#000000" transform="translate(74.48828125,250.72265625)"/>
<path d="M0 0 C6.14003078 5.1632077 7.90466033 11.1910824 10.02734375 18.6875 C10.32057022 19.689021 10.61379669 20.69054199 10.91590881 21.72241211 C11.84950276 24.91637188 12.76928958 28.11408716 13.6875 31.3125 C14.89927608 35.50166406 16.11717204 39.68900346 17.33984375 43.875 C17.63160492 44.8757959 17.92336609 45.8765918 18.22396851 46.90771484 C20.45516496 54.48766129 22.93633507 61.92855924 25.75 69.3125 C27.90056195 65.5255604 28.96849494 61.44049382 30.140625 57.27734375 C30.36586349 56.49005386 30.59110199 55.70276398 30.82316589 54.89161682 C31.30354473 53.2121962 31.78235665 51.53232673 32.25973511 49.85205078 C33.49162877 45.52191181 34.74041082 41.19665044 35.98828125 36.87109375 C36.23075089 36.0299704 36.47322052 35.18884705 36.72303772 34.32223511 C38.50657716 28.1407081 40.29647647 21.9621857 42.1875 15.8125 C42.50219238 14.75083618 42.50219238 14.75083618 42.82324219 13.66772461 C44.90520331 7.01960636 48.07426577 2.34525853 53.75 -1.6875 C57.49742031 -3.56121015 61.66918716 -3.21366178 65.75 -2.6875 C70.86471146 -0.62620386 73.80290172 3.05610136 75.97265625 8.01953125 C83.60482146 30.53250098 77.0440556 58.90045739 74.3125 82 C74.15764633 83.32501022 74.15764633 83.32501022 73.99966431 84.67678833 C73.30704648 90.56352679 72.56303746 96.44115228 71.75 102.3125 C71.63758972 103.12785217 71.52517944 103.94320435 71.40936279 104.78326416 C71.07405412 107.13667029 70.7123814 109.48426048 70.33984375 111.83203125 C70.24022842 112.53116135 70.1406131 113.23029144 70.03797913 113.9506073 C69.30879965 118.28049886 68.2306989 120.6046434 64.75 123.3125 C61.15473408 124.77004024 59.78418077 124.32466604 56.0625 123 C52.75 121.3125 52.75 121.3125 50.75 119.3125 C45.77872184 103.58636518 47.62794567 85.18122314 47.6875 68.9375 C47.69252507 66.54427177 47.69708619 64.15104252 47.70117188 61.7578125 C47.71209764 55.94268574 47.72875592 50.12759774 47.75 44.3125 C47.34160889 45.40191895 46.93321777 46.49133789 46.51245117 47.61376953 C44.98937007 51.67409102 43.46199482 55.73278602 41.93334961 59.79101562 C41.27365675 61.54415871 40.61511286 63.29773461 39.95776367 65.05175781 C39.01005505 67.57993737 38.05815889 70.10650657 37.10546875 72.6328125 C36.8147197 73.41117462 36.52397064 74.18953674 36.22441101 74.9914856 C31.83762466 86.58741689 31.83762466 86.58741689 27.75 89.3125 C24.06300446 89.79341246 22.34142568 89.70511374 19.21386719 87.62890625 C16.53492531 85.1102974 15.52113188 83.28033241 14.203125 79.875 C13.79126953 78.81410156 13.37941406 77.75320312 12.95507812 76.66015625 C11.00725334 71.24918108 9.21336015 65.80184233 7.5 60.3125 C7.149375 59.20777344 6.79875 58.10304687 6.4375 56.96484375 C5.11065368 52.76486482 3.80074729 48.59041076 2.75 44.3125 C2.70432892 45.0478447 2.65865784 45.78318939 2.61160278 46.54081726 C2.17662425 53.52731888 1.735911 60.51343084 1.28901863 67.49917889 C1.05955418 71.0891926 0.83218112 74.67931145 0.60986328 78.26977539 C0.39456666 81.74552312 0.17341674 85.22085657 -0.05151749 88.69599342 C-0.17612198 90.64349165 -0.29491858 92.59135876 -0.4135437 94.53923035 C-1.90120901 117.25072711 -1.90120901 117.25072711 -5.5625 122.0625 C-9.54967846 125.40060289 -9.54967846 125.40060289 -13.25 125.3125 C-17.26450926 123.92818646 -20.62066546 122.70238585 -23.25 119.3125 C-29.69524525 100.96304734 -29.60310482 80.89844877 -29.56567383 61.70605469 C-29.56250396 58.3167325 -29.5861122 54.92827835 -29.61132812 51.5390625 C-29.71686789 16.09061314 -29.71686789 16.09061314 -21.5625 2.5 C-15.21089086 -3.50827891 -7.66932172 -3.98214782 0 0 Z M48.75 39.3125 C49.75 41.3125 49.75 41.3125 49.75 41.3125 Z " fill="#000000" transform="translate(227.25,98.6875)"/>
<path d="M0 0 C3.96276095 3.46741583 4.88820365 6.08326017 5.5 11.1875 C5.5822882 13.18795628 5.61789688 15.19072785 5.61352539 17.19287109 C5.61344986 18.35362152 5.61337433 19.51437195 5.61329651 20.71029663 C5.60813522 21.94800812 5.60297394 23.1857196 5.59765625 24.4609375 C5.5962413 25.73981842 5.59482635 27.01869934 5.59336853 28.33633423 C5.58873022 31.71961336 5.57976081 35.10282386 5.56866455 38.48608398 C5.55839515 41.94514374 5.55385911 45.40421061 5.54882812 48.86328125 C5.53781609 55.63803966 5.52109064 62.41276587 5.5 69.1875 C6.03109375 68.91035156 6.5621875 68.63320313 7.109375 68.34765625 C8.16898437 67.80431641 8.16898437 67.80431641 9.25 67.25 C10.29414063 66.71052734 10.29414063 66.71052734 11.359375 66.16015625 C19.37882058 62.51628408 27.51587528 64.2670532 35.5 67.1875 C42.28612153 70.54243648 45.92299081 75.86180811 48.47265625 82.85546875 C52.24927954 96.43374689 53.67634789 120.07263643 47.0546875 133.01171875 C45.04446617 135.82501845 43.73141669 136.88118261 40.5 138.1875 C35.41953823 138.94915078 31.97501655 139.21052789 27.64453125 136.20703125 C24.62888266 131.96095409 25.35876225 129.32986642 26.1875 124.375 C27.2430238 116.41431243 27.77558297 108.59477065 27.8125 100.5625 C27.83799927 99.08946411 27.83799927 99.08946411 27.86401367 97.58666992 C27.8623041 90.87430319 27.611126 82.79926106 23.02075195 77.47021484 C19.91117654 74.8473686 17.49121591 74.87446346 13.5 75.1875 C10.78873616 76.61371684 10.78873616 76.61371684 8.5 78.1875 C7.84 78.1875 7.18 78.1875 6.5 78.1875 C4.89855189 82.4853757 4.17086826 86.27921382 3.90234375 90.8515625 C3.82387207 92.12990967 3.74540039 93.40825684 3.66455078 94.7253418 C3.62751038 95.39334808 3.59046997 96.06135437 3.55230713 96.74960327 C3.43640824 98.83211708 3.30899634 100.91367104 3.17919922 102.99536133 C2.80115892 109.17303054 2.47278919 115.34792663 2.29296875 121.53515625 C2.26275635 122.45151855 2.23254395 123.36788086 2.20141602 124.31201172 C2.15188238 125.97336661 2.11879295 127.63532551 2.10522461 129.29736328 C2.00118426 132.77945188 1.77788363 134.81262486 -0.32421875 137.6484375 C-3.40888501 139.83040969 -5.74694692 140.12165696 -9.5 140.1875 C-12.91178655 138.86930974 -14.17783189 137.71967325 -16.07080078 134.59277344 C-17.75386976 130.58261866 -18.2397982 127.06387836 -18.6171875 122.765625 C-18.69532684 121.97077698 -18.77346619 121.17592896 -18.85397339 120.35699463 C-19.08347782 117.96820447 -19.29450482 115.5784625 -19.5 113.1875 C-19.6124707 111.93259766 -19.72494141 110.67769531 -19.84082031 109.38476562 C-20.15117345 105.57126247 -20.40776396 101.75722439 -20.625 97.9375 C-20.68654266 96.85708939 -20.68654266 96.85708939 -20.74932861 95.75485229 C-21.72055282 77.73947844 -21.78776216 59.69308832 -21.86244965 41.65620422 C-21.87498251 39.25335277 -21.89480356 36.85066019 -21.91656494 34.44787598 C-21.94995941 30.61627789 -21.96217513 26.78515717 -21.95851898 22.95342064 C-21.96011575 21.52187956 -21.96838947 20.09032844 -21.98374176 18.65886879 C-22.00341276 16.67510173 -21.99521563 14.69111783 -21.98583984 12.70727539 C-21.98868988 11.58865616 -21.99153992 10.47003693 -21.99447632 9.31752014 C-21.38203019 5.44075469 -19.89757816 3.25666246 -17.5 0.1875 C-12.26979766 -3.44633536 -5.40543375 -2.79924248 0 0 Z " fill="#000000" transform="translate(291.5,258.8125)"/>
<path d="M0 0 C10.7698728 10.11783457 15.42891115 24.37706619 16.14208984 38.8918457 C16.81790676 61.9639608 15.60511143 83.97169275 0.5625 102.6875 C-5.51820277 109.00583943 -12.96167691 112.12607335 -21.625 112.4375 C-28.71300875 112.36442774 -32.97015181 111.01945594 -38 106 C-51.8896169 89.84854182 -53.95790522 65.73738273 -52.78515625 45.28515625 C-51.48551856 28.95158885 -47.19808082 12.02121692 -34.85546875 0.46875 C-24.60716798 -7.64358913 -10.18970278 -8.69694377 0 0 Z M-31 19 C-37.36240816 30.81590087 -38.27435727 44.05176041 -38.375 57.1875 C-38.38885742 58.26773438 -38.40271484 59.34796875 -38.41699219 60.4609375 C-38.35387483 71.37027449 -37.02726825 81.97273175 -29.0625 89.9375 C-27.02528982 91.17619436 -27.02528982 91.17619436 -24.5625 91.0625 C-20.85114119 89.52364391 -18.93926415 87.41589339 -17 84 C-8.97349526 64.431935 -7.73226398 38.66924263 -15.90234375 18.98828125 C-17.06017522 16.89099934 -18.14340829 15.51052676 -20 14 C-25.54065212 13.03640833 -27.67902527 14.63029641 -31 19 Z " fill="#000000" transform="translate(75,105)"/>
<path d="M0 0 C4.10118376 2.08787537 6.29569657 3.75932262 8 8 C9.54180113 16.92561733 8.94955409 26.06223946 8.5625 35.0625 C8.10960175 46.7143051 7.86631251 58.33948039 8 70 C8.77380005 69.47599609 8.77380005 69.47599609 9.56323242 68.94140625 C16.37238802 64.48042599 21.68885561 63.36266267 29.83203125 64.33984375 C37.10212256 65.89554161 42.31799419 69.21806351 47 75 C55.5782329 90.63567105 53.18260584 112.07065521 50.2421875 129.0234375 C48.60184992 132.95405774 46.7592123 134.09514883 43 136 C40.40234375 136.56640625 40.40234375 136.56640625 37.9375 136.5625 C37.12152344 136.58441406 36.30554688 136.60632813 35.46484375 136.62890625 C31.68238828 135.66381064 30.24943812 134.16557292 28 131 C27.67378672 127.93947704 28.18670044 125.08498307 28.6875 122.0625 C29.6873628 114.47650779 30.27380454 107.0294865 30.3125 99.375 C30.33799927 98.04480835 30.33799927 98.04480835 30.36401367 96.68774414 C30.36199305 89.50983332 29.29497576 82.44246364 25.25 76.375 C21.98857159 74.38190486 19.75402568 74.5389793 16 75 C12.27957391 76.69110277 10.16092074 78.55929971 8 82 C7.42485138 84.61076244 7.42485138 84.61076244 7.3046875 87.48828125 C7.22927734 88.57681396 7.15386719 89.66534668 7.07617188 90.78686523 C7.00978516 91.95032471 6.94339844 93.11378418 6.875 94.3125 C6.75608398 96.10312866 6.75608398 96.10312866 6.63476562 97.92993164 C6.25404788 103.86999368 5.95336549 109.80994814 5.7265625 115.7578125 C5.6867627 116.80155029 5.64696289 117.84528809 5.60595703 118.9206543 C5.53667991 120.89313675 5.47734413 122.86599998 5.42919922 124.83911133 C5.40100098 125.72622803 5.37280273 126.61334473 5.34375 127.52734375 C5.32505859 128.29812256 5.30636719 129.06890137 5.28710938 129.86303711 C4.96159162 132.28587463 4.27101215 133.91990239 3 136 C-0.81748399 138.05490692 -4.19504541 138.22781734 -8.3125 137.0625 C-12.17135905 134.10105003 -13.54459058 130.471822 -14.40643311 125.79400635 C-14.70702802 123.31488832 -14.92739713 120.84160633 -15.1171875 118.3515625 C-15.19532684 117.43226959 -15.27346619 116.51297668 -15.35397339 115.56582642 C-16.15173035 105.84670684 -16.70112123 96.11688262 -17.125 86.375 C-17.16636078 85.44185974 -17.20772156 84.50871948 -17.25033569 83.54730225 C-17.91175313 68.21317039 -18.23157235 52.88058931 -18.29754639 37.53253174 C-18.30746057 35.27335152 -18.32193567 33.01418639 -18.34112549 30.75506592 C-18.36480425 27.58910334 -18.36744046 24.42384676 -18.36328125 21.2578125 C-18.37240036 20.32120789 -18.38151947 19.38460327 -18.39091492 18.4196167 C-18.34686946 12.12693401 -17.55063469 7.18829337 -13.5 2.125 C-9.60688412 -0.79483691 -4.62590613 -0.57626476 0 0 Z " fill="#000000" transform="translate(114,87)"/>
<path d="M0 0 C6.55136665 5.33696698 9.96273055 10.41224671 10.8359375 18.859375 C11.14868607 28.34608152 9.88085331 34.71485184 4.21484375 42.26953125 C0.65653139 44.85739479 -2.17791163 45.42861929 -6.53515625 45.26953125 C-10.61117455 44.27317122 -12.36980539 42.82090659 -14.53515625 39.26953125 C-14.828125 36.72338867 -14.828125 36.72338867 -14.72265625 33.875 C-14.69945312 32.83666016 -14.67625 31.79832031 -14.65234375 30.72851562 C-14.57463799 28.55922973 -14.49651753 26.38995865 -14.41796875 24.22070312 C-14.26199553 17.21490582 -14.37349603 11.76994078 -19.28515625 6.33203125 C-23.37049925 4.4028415 -27.0025911 4.77055655 -31.22265625 6.14453125 C-36.61008435 11.09514085 -37.72966264 17.59033773 -38.0612793 24.64282227 C-38.16202582 30.87896456 -38.18985142 36.65877362 -34.1171875 41.71875 C-27.2798334 48.42104525 -19.07938645 52.13074933 -10.56152344 56.28027344 C8.49934008 65.58564922 8.49934008 65.58564922 12.96484375 74.14453125 C13.97463679 80.45573777 13.25351394 86.21973547 9.75 91.64453125 C4.17830487 98.68959257 -3.67813751 102.95413243 -12.53515625 104.26953125 C-27.83981538 105.27600044 -41.06517195 104.03044765 -53.53515625 94.26953125 C-57.21558871 90.67886543 -59.39140563 87.70703746 -59.91015625 82.51953125 C-59.85769234 79.32506207 -59.35766562 77.36528185 -57.47265625 74.76953125 C-54.53515625 72.26953125 -54.53515625 72.26953125 -51.03515625 71.58203125 C-46.03268845 72.56465885 -44.22312078 75.09651944 -41.17578125 79.01953125 C-36.25693524 85.15486606 -31.30870234 88.07740397 -23.47265625 89.20703125 C-18.62355669 89.52035768 -15.71302578 88.74214791 -11.53515625 86.26953125 C-9.44414997 84.54024242 -9.44414997 84.54024242 -8.53515625 82.26953125 C-8.53515625 78.98613487 -9.28597138 77.57355809 -11.36328125 75.0390625 C-15.64524047 70.89456216 -21.12549947 68.28118389 -26.28515625 65.39453125 C-39.96304698 57.73019593 -51.71473251 50.6486269 -56.84375 35.1328125 C-59.11356985 25.73293708 -57.36915548 17.51767798 -52.84765625 9.14453125 C-40.24056126 -6.52915442 -17.23324654 -11.76321759 0 0 Z " fill="#000000" transform="translate(252.53515625,295.73046875)"/>
<path d="M0 0 C2.93087207 2.25451698 3.82814288 3.48442865 5 7 C8.00066515 33.48735285 8.06999296 67.02032608 -8.7265625 89.2890625 C-14.04683276 94.9980283 -20.84421158 98.53268485 -28.62890625 99.23828125 C-36.88786457 99.4472296 -44.64630995 98.68027756 -51.171875 93.1640625 C-57.33804005 86.51377705 -58.219984 80.7681079 -58.265625 71.90234375 C-57.96799638 68.65031335 -57.39211605 65.39211605 -55 63 C-52.5 62.875 -52.5 62.875 -50 63 C-49 64 -49 64 -48.97265625 67.203125 C-49.0107573 69.22849645 -49.06258381 71.25263609 -49.12695312 73.27734375 C-49.19420589 77.30459737 -49.00624161 80.46112135 -47 84 C-41.65503547 86.35178439 -37.55284069 86.25386725 -32 85 C-27.07374828 82.42491387 -25.69587093 78.59821989 -23.796875 73.6328125 C-22.22322274 68.43358885 -21.88224735 63.53975996 -21.9375 58.125 C-21.94652344 56.97257812 -21.95554687 55.82015625 -21.96484375 54.6328125 C-21.97644531 53.76398438 -21.98804688 52.89515625 -22 52 C-22.886875 52.495 -23.77375 52.99 -24.6875 53.5 C-30.76960296 56.07129556 -38.29254042 56.42099791 -44.4765625 54.05078125 C-52.04479817 49.55802712 -55.40953424 43.19550008 -58 35 C-60.49651806 24.85964854 -62.05962541 12.85705539 -58 3 C-54.37599073 -0.29455388 -50.86038669 -0.34980534 -46.18359375 -0.3984375 C-43.35750953 0.1172344 -42.0759443 1.01904058 -40 3 C-39.57763672 5.36914062 -39.57763672 5.36914062 -39.6796875 8.15625 C-39.70160156 9.17976562 -39.72351563 10.20328125 -39.74609375 11.2578125 C-39.78863281 12.32773438 -39.83117187 13.39765625 -39.875 14.5 C-40.18882303 23.8681985 -40.34121822 32.97071641 -36.3125 41.625 C-34.11558348 44.25661358 -34.11558348 44.25661358 -30.625 45.0625 C-26.5537306 44.9923057 -24.40308204 44.18769559 -21 42 C-19.52585927 39.05171854 -19.70614187 36.00125155 -19.5703125 32.76171875 C-19.49663602 31.28708218 -19.42239948 29.81247351 -19.34765625 28.33789062 C-19.234357 26.01427506 -19.1251373 23.69071515 -19.02587891 21.36645508 C-18.92796984 19.12242713 -18.81289131 16.8797908 -18.6953125 14.63671875 C-18.67018585 13.94696457 -18.6450592 13.25721039 -18.61917114 12.54655457 C-18.37928631 8.25956228 -17.63900524 5.41062827 -15 2 C-9.5409681 -1.21119523 -5.97027746 -1.46810101 0 0 Z " fill="#000000" transform="translate(368,128)"/>
<path d="M0 0 C2.4375 1.6875 2.4375 1.6875 4.4375 4.6875 C4.7121582 7.59716797 4.7121582 7.59716797 4.73828125 11.1796875 C4.74378998 11.82952606 4.74929871 12.47936462 4.75497437 13.14889526 C4.76676044 15.28697806 4.76028781 17.42441517 4.75 19.5625 C4.74884186 20.29392212 4.74768372 21.02534424 4.74649048 21.77893066 C4.7134002 32.39267424 4.21441899 42.87787253 3.125 53.4375 C3.00745361 54.58202637 2.88990723 55.72655273 2.76879883 56.90576172 C0.43883198 77.20401601 0.43883198 77.20401601 -3.45043945 82.03027344 C-5.5625 83.6875 -5.5625 83.6875 -9 84.125 C-12.80432286 83.65780246 -14.66156541 83.17401537 -17.5625 80.6875 C-21.91380036 71.76733427 -20.73397525 59.89916622 -20.765625 50.25390625 C-20.76845238 49.58280256 -20.77127975 48.91169888 -20.77419281 48.22025871 C-20.78905319 44.6830495 -20.79837095 41.14587984 -20.80273438 37.60864258 C-20.8082645 33.96132198 -20.83242349 30.31436616 -20.86070633 26.66716099 C-20.87929878 23.85077315 -20.88453601 21.03447497 -20.88607025 18.21803093 C-20.89056096 16.21990007 -20.9091981 14.22181721 -20.92803955 12.22377014 C-20.92503845 11.01498703 -20.92203735 9.80620392 -20.91894531 8.56079102 C-20.92259094 7.49619156 -20.92623657 6.4315921 -20.92999268 5.33473206 C-20.5625 2.6875 -20.5625 2.6875 -19.22772217 0.88291931 C-13.91859252 -2.92836559 -5.81052422 -2.14071945 0 0 Z " fill="#000000" transform="translate(180.5625,312.3125)"/>
<path d="M0 0 C8.72216007 -0.12044718 17.31048249 0.19313671 26 0.9375 C27.09183594 1.02451172 28.18367188 1.11152344 29.30859375 1.20117188 C33.94764749 1.58444743 38.44472589 2.01436494 43 3 C42.45548361 11.22147429 41.12288195 19.12882497 39.4375 27.1875 C39.08655273 28.90163086 39.08655273 28.90163086 38.72851562 30.65039062 C38.15766629 33.43473738 37.58141765 36.21784449 37 39 C31.50929882 38.38441435 26.19938339 37.49268815 20.81640625 36.2578125 C19.70494484 36.00425491 19.70494484 36.00425491 18.57102966 35.74557495 C17.02183393 35.38983606 15.47317596 35.03174759 13.92504883 34.67138672 C11.54707119 34.12143178 9.16537823 33.59003025 6.78320312 33.05859375 C5.27317471 32.70946799 3.76339894 32.3592473 2.25390625 32.0078125 C1.54045547 31.85144318 0.8270047 31.69507385 0.0919342 31.53396606 C-1.89233398 31.05908203 -1.89233398 31.05908203 -5 30 C-6.22757672 26.31726983 -5.65080193 24.56369001 -4.78515625 20.80078125 C-4.37426758 18.98803711 -4.37426758 18.98803711 -3.95507812 17.13867188 C-3.66052734 15.87603516 -3.36597656 14.61339844 -3.0625 13.3125 C-2.77181641 12.03826172 -2.48113281 10.76402344 -2.18164062 9.45117188 C-1.4615011 6.29908574 -0.73401121 3.14887963 0 0 Z " fill="#000000" transform="translate(388,354)"/>
<path d="M0 0 C3.64358872 1.60377029 5.79804624 3.15859248 7.625 6.8125 C7.89948187 10.00907007 7.62325233 12.76070002 6.625 15.8125 C3.26035284 19.35423385 0.3895563 20.67727646 -4.484375 21.05078125 C-17.29862306 21.31201592 -17.29862306 21.31201592 -22.375 16.8125 C-24.31383547 12.78568787 -24.73124015 10.88122046 -23.3125 6.625 C-17.52241388 -1.77996373 -9.40204043 -3.12812247 0 0 Z " fill="#000000" transform="translate(180.375,279.1875)"/>
</svg>
